<mxfile host="app.diagrams.net" modified="2023-11-06T12:30:22.558Z" agent="Mozilla/5.0 (X11; Ubuntu; Linux x86_64; rv:109.0) Gecko/20100101 Firefox/117.0" etag="XjyamMbqgQg3hdK_Youd" version="22.0.8" type="device">
  <diagram name="Page-1" id="5fRysByQ8PBKRA3W7UYL">
    <mxGraphModel dx="2212" dy="795" grid="1" gridSize="10" guides="1" tooltips="1" connect="1" arrows="1" fold="1" page="1" pageScale="1" pageWidth="850" pageHeight="1100" math="0" shadow="0">
      <root>
        <mxCell id="0" />
        <mxCell id="1" parent="0" />
        <mxCell id="ot5Yg180io7Jrz8tRVp9-1" value="Start" style="ellipse;whiteSpace=wrap;html=1;" parent="1" vertex="1">
          <mxGeometry x="390" y="40" width="120" height="80" as="geometry" />
        </mxCell>
        <mxCell id="ot5Yg180io7Jrz8tRVp9-6" value="" style="edgeStyle=orthogonalEdgeStyle;rounded=0;orthogonalLoop=1;jettySize=auto;html=1;" parent="1" source="ot5Yg180io7Jrz8tRVp9-2" target="ot5Yg180io7Jrz8tRVp9-4" edge="1">
          <mxGeometry relative="1" as="geometry" />
        </mxCell>
        <mxCell id="ot5Yg180io7Jrz8tRVp9-2" value="&lt;div&gt;Setup:&lt;/div&gt;&lt;div&gt;- subscribers&lt;/div&gt;&lt;div&gt;- publishers&lt;/div&gt;&lt;div&gt;- services&lt;br&gt;&lt;/div&gt;" style="rounded=1;whiteSpace=wrap;html=1;" parent="1" vertex="1">
          <mxGeometry x="390" y="160" width="120" height="70" as="geometry" />
        </mxCell>
        <mxCell id="ot5Yg180io7Jrz8tRVp9-3" value="" style="endArrow=classic;html=1;rounded=0;entryX=0.5;entryY=0;entryDx=0;entryDy=0;" parent="1" target="ot5Yg180io7Jrz8tRVp9-2" edge="1">
          <mxGeometry width="50" height="50" relative="1" as="geometry">
            <mxPoint x="450" y="100" as="sourcePoint" />
            <mxPoint x="460" y="180" as="targetPoint" />
          </mxGeometry>
        </mxCell>
        <mxCell id="fyeRi_BMllB8emfNk8ld-3" value="" style="edgeStyle=orthogonalEdgeStyle;rounded=0;orthogonalLoop=1;jettySize=auto;html=1;" edge="1" parent="1" source="ot5Yg180io7Jrz8tRVp9-4" target="fyeRi_BMllB8emfNk8ld-2">
          <mxGeometry relative="1" as="geometry" />
        </mxCell>
        <mxCell id="ot5Yg180io7Jrz8tRVp9-4" value="Wait for SITL connection" style="rounded=1;whiteSpace=wrap;html=1;" parent="1" vertex="1">
          <mxGeometry x="390" y="270" width="120" height="60" as="geometry" />
        </mxCell>
        <mxCell id="fyeRi_BMllB8emfNk8ld-6" value="" style="edgeStyle=orthogonalEdgeStyle;rounded=0;orthogonalLoop=1;jettySize=auto;html=1;" edge="1" parent="1" source="ot5Yg180io7Jrz8tRVp9-7" target="fyeRi_BMllB8emfNk8ld-5">
          <mxGeometry relative="1" as="geometry" />
        </mxCell>
        <mxCell id="ot5Yg180io7Jrz8tRVp9-7" value="Set GUIDED mode(and check)" style="rounded=1;whiteSpace=wrap;html=1;" parent="1" vertex="1">
          <mxGeometry x="390" y="470" width="120" height="60" as="geometry" />
        </mxCell>
        <mxCell id="fyeRi_BMllB8emfNk8ld-16" style="edgeStyle=orthogonalEdgeStyle;rounded=0;orthogonalLoop=1;jettySize=auto;html=1;exitX=0.5;exitY=1;exitDx=0;exitDy=0;entryX=0.5;entryY=0;entryDx=0;entryDy=0;" edge="1" parent="1" source="fyeRi_BMllB8emfNk8ld-1" target="fyeRi_BMllB8emfNk8ld-15">
          <mxGeometry relative="1" as="geometry" />
        </mxCell>
        <mxCell id="fyeRi_BMllB8emfNk8ld-17" value="&lt;div&gt;True&lt;/div&gt;" style="edgeLabel;html=1;align=center;verticalAlign=middle;resizable=0;points=[];" vertex="1" connectable="0" parent="fyeRi_BMllB8emfNk8ld-16">
          <mxGeometry x="-0.0571" y="2" relative="1" as="geometry">
            <mxPoint as="offset" />
          </mxGeometry>
        </mxCell>
        <mxCell id="fyeRi_BMllB8emfNk8ld-20" value="" style="edgeStyle=orthogonalEdgeStyle;rounded=0;orthogonalLoop=1;jettySize=auto;html=1;" edge="1" parent="1" source="fyeRi_BMllB8emfNk8ld-1" target="fyeRi_BMllB8emfNk8ld-19">
          <mxGeometry relative="1" as="geometry" />
        </mxCell>
        <mxCell id="fyeRi_BMllB8emfNk8ld-21" value="False" style="edgeLabel;html=1;align=center;verticalAlign=middle;resizable=0;points=[];" vertex="1" connectable="0" parent="fyeRi_BMllB8emfNk8ld-20">
          <mxGeometry x="-0.4" y="-3" relative="1" as="geometry">
            <mxPoint as="offset" />
          </mxGeometry>
        </mxCell>
        <mxCell id="fyeRi_BMllB8emfNk8ld-1" value="&lt;span style=&quot;white-space: pre;&quot;&gt;points_first_iteration&lt;br&gt;&lt;/span&gt;" style="rhombus;whiteSpace=wrap;html=1;" vertex="1" parent="1">
          <mxGeometry x="-220" y="680" width="130" height="140" as="geometry" />
        </mxCell>
        <mxCell id="fyeRi_BMllB8emfNk8ld-4" value="" style="edgeStyle=orthogonalEdgeStyle;rounded=0;orthogonalLoop=1;jettySize=auto;html=1;" edge="1" parent="1" source="fyeRi_BMllB8emfNk8ld-2" target="ot5Yg180io7Jrz8tRVp9-7">
          <mxGeometry relative="1" as="geometry" />
        </mxCell>
        <mxCell id="fyeRi_BMllB8emfNk8ld-2" value="Read CSV with mission" style="rounded=1;whiteSpace=wrap;html=1;" vertex="1" parent="1">
          <mxGeometry x="390" y="370" width="120" height="60" as="geometry" />
        </mxCell>
        <mxCell id="fyeRi_BMllB8emfNk8ld-8" style="edgeStyle=orthogonalEdgeStyle;rounded=0;orthogonalLoop=1;jettySize=auto;html=1;entryX=0.5;entryY=0;entryDx=0;entryDy=0;" edge="1" parent="1" source="fyeRi_BMllB8emfNk8ld-5" target="fyeRi_BMllB8emfNk8ld-1">
          <mxGeometry relative="1" as="geometry" />
        </mxCell>
        <mxCell id="fyeRi_BMllB8emfNk8ld-141" value="True" style="edgeLabel;html=1;align=center;verticalAlign=middle;resizable=0;points=[];" vertex="1" connectable="0" parent="fyeRi_BMllB8emfNk8ld-8">
          <mxGeometry x="-0.2815" relative="1" as="geometry">
            <mxPoint x="159" as="offset" />
          </mxGeometry>
        </mxCell>
        <mxCell id="fyeRi_BMllB8emfNk8ld-144" style="edgeStyle=orthogonalEdgeStyle;rounded=0;orthogonalLoop=1;jettySize=auto;html=1;exitX=1;exitY=0.5;exitDx=0;exitDy=0;entryX=0;entryY=0.5;entryDx=0;entryDy=0;" edge="1" parent="1" source="fyeRi_BMllB8emfNk8ld-5" target="fyeRi_BMllB8emfNk8ld-143">
          <mxGeometry relative="1" as="geometry" />
        </mxCell>
        <mxCell id="fyeRi_BMllB8emfNk8ld-145" value="False" style="edgeLabel;html=1;align=center;verticalAlign=middle;resizable=0;points=[];" vertex="1" connectable="0" parent="fyeRi_BMllB8emfNk8ld-144">
          <mxGeometry x="-0.244" y="1" relative="1" as="geometry">
            <mxPoint x="-326" y="1" as="offset" />
          </mxGeometry>
        </mxCell>
        <mxCell id="fyeRi_BMllB8emfNk8ld-5" value="while (current_point &amp;lt; number_of_points)" style="rounded=1;whiteSpace=wrap;html=1;" vertex="1" parent="1">
          <mxGeometry x="325" y="590" width="250" height="60" as="geometry" />
        </mxCell>
        <mxCell id="fyeRi_BMllB8emfNk8ld-22" style="edgeStyle=orthogonalEdgeStyle;rounded=0;orthogonalLoop=1;jettySize=auto;html=1;entryX=0;entryY=0.5;entryDx=0;entryDy=0;" edge="1" parent="1" source="fyeRi_BMllB8emfNk8ld-15" target="fyeRi_BMllB8emfNk8ld-19">
          <mxGeometry relative="1" as="geometry">
            <Array as="points">
              <mxPoint x="-30" y="920" />
              <mxPoint x="-30" y="750" />
            </Array>
          </mxGeometry>
        </mxCell>
        <mxCell id="fyeRi_BMllB8emfNk8ld-15" value="initialize values for point execution" style="rounded=1;whiteSpace=wrap;html=1;" vertex="1" parent="1">
          <mxGeometry x="-215" y="890" width="120" height="60" as="geometry" />
        </mxCell>
        <mxCell id="fyeRi_BMllB8emfNk8ld-24" value="" style="edgeStyle=orthogonalEdgeStyle;rounded=0;orthogonalLoop=1;jettySize=auto;html=1;" edge="1" parent="1" source="fyeRi_BMllB8emfNk8ld-19" target="fyeRi_BMllB8emfNk8ld-23">
          <mxGeometry relative="1" as="geometry" />
        </mxCell>
        <mxCell id="fyeRi_BMllB8emfNk8ld-25" value="True" style="edgeLabel;html=1;align=center;verticalAlign=middle;resizable=0;points=[];" vertex="1" connectable="0" parent="fyeRi_BMllB8emfNk8ld-24">
          <mxGeometry x="-0.2" y="3" relative="1" as="geometry">
            <mxPoint as="offset" />
          </mxGeometry>
        </mxCell>
        <mxCell id="fyeRi_BMllB8emfNk8ld-34" value="" style="edgeStyle=orthogonalEdgeStyle;rounded=0;orthogonalLoop=1;jettySize=auto;html=1;" edge="1" parent="1" source="fyeRi_BMllB8emfNk8ld-19" target="fyeRi_BMllB8emfNk8ld-33">
          <mxGeometry relative="1" as="geometry" />
        </mxCell>
        <mxCell id="fyeRi_BMllB8emfNk8ld-35" value="False" style="edgeLabel;html=1;align=center;verticalAlign=middle;resizable=0;points=[];" vertex="1" connectable="0" parent="fyeRi_BMllB8emfNk8ld-34">
          <mxGeometry x="-0.1667" y="-2" relative="1" as="geometry">
            <mxPoint as="offset" />
          </mxGeometry>
        </mxCell>
        <mxCell id="fyeRi_BMllB8emfNk8ld-19" value="&lt;div&gt;task == &quot;takeoff&quot;&lt;/div&gt;" style="rhombus;whiteSpace=wrap;html=1;" vertex="1" parent="1">
          <mxGeometry x="10" y="680" width="130" height="140" as="geometry" />
        </mxCell>
        <mxCell id="fyeRi_BMllB8emfNk8ld-27" value="" style="edgeStyle=orthogonalEdgeStyle;rounded=0;orthogonalLoop=1;jettySize=auto;html=1;" edge="1" parent="1" source="fyeRi_BMllB8emfNk8ld-23" target="fyeRi_BMllB8emfNk8ld-26">
          <mxGeometry relative="1" as="geometry" />
        </mxCell>
        <mxCell id="fyeRi_BMllB8emfNk8ld-23" value="Arm drone" style="rounded=1;whiteSpace=wrap;html=1;" vertex="1" parent="1">
          <mxGeometry x="15" y="880" width="120" height="60" as="geometry" />
        </mxCell>
        <mxCell id="fyeRi_BMllB8emfNk8ld-29" value="" style="edgeStyle=orthogonalEdgeStyle;rounded=0;orthogonalLoop=1;jettySize=auto;html=1;" edge="1" parent="1" source="fyeRi_BMllB8emfNk8ld-26" target="fyeRi_BMllB8emfNk8ld-28">
          <mxGeometry relative="1" as="geometry" />
        </mxCell>
        <mxCell id="fyeRi_BMllB8emfNk8ld-26" value="Takeoff drone to given altitude" style="rounded=1;whiteSpace=wrap;html=1;" vertex="1" parent="1">
          <mxGeometry x="15" y="980" width="120" height="60" as="geometry" />
        </mxCell>
        <mxCell id="fyeRi_BMllB8emfNk8ld-70" value="" style="edgeStyle=orthogonalEdgeStyle;rounded=0;orthogonalLoop=1;jettySize=auto;html=1;" edge="1" parent="1" source="fyeRi_BMllB8emfNk8ld-28" target="fyeRi_BMllB8emfNk8ld-69">
          <mxGeometry relative="1" as="geometry" />
        </mxCell>
        <mxCell id="fyeRi_BMllB8emfNk8ld-28" value="Wait until drone at altitude with given precision" style="rounded=1;whiteSpace=wrap;html=1;" vertex="1" parent="1">
          <mxGeometry x="15" y="1080" width="120" height="60" as="geometry" />
        </mxCell>
        <mxCell id="fyeRi_BMllB8emfNk8ld-36" style="edgeStyle=orthogonalEdgeStyle;rounded=0;orthogonalLoop=1;jettySize=auto;html=1;entryX=0;entryY=0.5;entryDx=0;entryDy=0;" edge="1" parent="1" source="fyeRi_BMllB8emfNk8ld-31" target="fyeRi_BMllB8emfNk8ld-33">
          <mxGeometry relative="1" as="geometry">
            <Array as="points">
              <mxPoint x="220" y="1330" />
              <mxPoint x="220" y="750" />
            </Array>
          </mxGeometry>
        </mxCell>
        <mxCell id="fyeRi_BMllB8emfNk8ld-31" value="Select map for current altitude" style="rounded=1;whiteSpace=wrap;html=1;" vertex="1" parent="1">
          <mxGeometry x="15" y="1300" width="120" height="60" as="geometry" />
        </mxCell>
        <mxCell id="fyeRi_BMllB8emfNk8ld-56" value="" style="edgeStyle=orthogonalEdgeStyle;rounded=0;orthogonalLoop=1;jettySize=auto;html=1;" edge="1" parent="1" source="fyeRi_BMllB8emfNk8ld-33" target="fyeRi_BMllB8emfNk8ld-55">
          <mxGeometry relative="1" as="geometry" />
        </mxCell>
        <mxCell id="fyeRi_BMllB8emfNk8ld-57" value="False" style="edgeLabel;html=1;align=center;verticalAlign=middle;resizable=0;points=[];" vertex="1" connectable="0" parent="fyeRi_BMllB8emfNk8ld-56">
          <mxGeometry x="-0.2" y="-5" relative="1" as="geometry">
            <mxPoint as="offset" />
          </mxGeometry>
        </mxCell>
        <mxCell id="fyeRi_BMllB8emfNk8ld-76" value="" style="edgeStyle=orthogonalEdgeStyle;rounded=0;orthogonalLoop=1;jettySize=auto;html=1;" edge="1" parent="1" source="fyeRi_BMllB8emfNk8ld-33" target="fyeRi_BMllB8emfNk8ld-75">
          <mxGeometry relative="1" as="geometry" />
        </mxCell>
        <mxCell id="fyeRi_BMllB8emfNk8ld-88" value="True" style="edgeLabel;html=1;align=center;verticalAlign=middle;resizable=0;points=[];" vertex="1" connectable="0" parent="fyeRi_BMllB8emfNk8ld-76">
          <mxGeometry x="-0.2667" y="-1" relative="1" as="geometry">
            <mxPoint as="offset" />
          </mxGeometry>
        </mxCell>
        <mxCell id="fyeRi_BMllB8emfNk8ld-33" value="&lt;div&gt;task == &quot;landtakeoff&quot;&lt;/div&gt;" style="rhombus;whiteSpace=wrap;html=1;" vertex="1" parent="1">
          <mxGeometry x="240" y="680" width="130" height="140" as="geometry" />
        </mxCell>
        <mxCell id="fyeRi_BMllB8emfNk8ld-40" value="" style="edgeStyle=orthogonalEdgeStyle;rounded=0;orthogonalLoop=1;jettySize=auto;html=1;" edge="1" parent="1" source="fyeRi_BMllB8emfNk8ld-37" target="fyeRi_BMllB8emfNk8ld-39">
          <mxGeometry relative="1" as="geometry" />
        </mxCell>
        <mxCell id="fyeRi_BMllB8emfNk8ld-37" value="Land drone" style="rounded=1;whiteSpace=wrap;html=1;" vertex="1" parent="1">
          <mxGeometry x="245" y="1180" width="120" height="60" as="geometry" />
        </mxCell>
        <mxCell id="fyeRi_BMllB8emfNk8ld-54" value="" style="edgeStyle=orthogonalEdgeStyle;rounded=0;orthogonalLoop=1;jettySize=auto;html=1;" edge="1" parent="1" source="fyeRi_BMllB8emfNk8ld-39" target="fyeRi_BMllB8emfNk8ld-48">
          <mxGeometry relative="1" as="geometry" />
        </mxCell>
        <mxCell id="fyeRi_BMllB8emfNk8ld-39" value="Wait until drone landed" style="rounded=1;whiteSpace=wrap;html=1;" vertex="1" parent="1">
          <mxGeometry x="245" y="1300" width="120" height="60" as="geometry" />
        </mxCell>
        <mxCell id="fyeRi_BMllB8emfNk8ld-47" value="" style="edgeStyle=orthogonalEdgeStyle;rounded=0;orthogonalLoop=1;jettySize=auto;html=1;" edge="1" parent="1" source="fyeRi_BMllB8emfNk8ld-48" target="fyeRi_BMllB8emfNk8ld-50">
          <mxGeometry relative="1" as="geometry" />
        </mxCell>
        <mxCell id="fyeRi_BMllB8emfNk8ld-48" value="Arm drone" style="rounded=1;whiteSpace=wrap;html=1;" vertex="1" parent="1">
          <mxGeometry x="245" y="1400" width="120" height="60" as="geometry" />
        </mxCell>
        <mxCell id="fyeRi_BMllB8emfNk8ld-49" value="" style="edgeStyle=orthogonalEdgeStyle;rounded=0;orthogonalLoop=1;jettySize=auto;html=1;" edge="1" parent="1" source="fyeRi_BMllB8emfNk8ld-50" target="fyeRi_BMllB8emfNk8ld-52">
          <mxGeometry relative="1" as="geometry" />
        </mxCell>
        <mxCell id="fyeRi_BMllB8emfNk8ld-50" value="Takeoff drone to given altitude" style="rounded=1;whiteSpace=wrap;html=1;" vertex="1" parent="1">
          <mxGeometry x="245" y="1500" width="120" height="60" as="geometry" />
        </mxCell>
        <mxCell id="fyeRi_BMllB8emfNk8ld-84" value="" style="edgeStyle=orthogonalEdgeStyle;rounded=0;orthogonalLoop=1;jettySize=auto;html=1;" edge="1" parent="1" source="fyeRi_BMllB8emfNk8ld-52" target="fyeRi_BMllB8emfNk8ld-83">
          <mxGeometry relative="1" as="geometry" />
        </mxCell>
        <mxCell id="fyeRi_BMllB8emfNk8ld-52" value="Wait until drone at altitude with given precision" style="rounded=1;whiteSpace=wrap;html=1;" vertex="1" parent="1">
          <mxGeometry x="245" y="1600" width="120" height="60" as="geometry" />
        </mxCell>
        <mxCell id="fyeRi_BMllB8emfNk8ld-90" style="edgeStyle=orthogonalEdgeStyle;rounded=0;orthogonalLoop=1;jettySize=auto;html=1;entryX=0;entryY=0.5;entryDx=0;entryDy=0;" edge="1" parent="1" source="fyeRi_BMllB8emfNk8ld-53" target="fyeRi_BMllB8emfNk8ld-55">
          <mxGeometry relative="1" as="geometry">
            <Array as="points">
              <mxPoint x="440" y="1810" />
              <mxPoint x="440" y="750" />
            </Array>
          </mxGeometry>
        </mxCell>
        <mxCell id="fyeRi_BMllB8emfNk8ld-53" value="Select map for current altitude" style="rounded=1;whiteSpace=wrap;html=1;" vertex="1" parent="1">
          <mxGeometry x="245" y="1780" width="120" height="60" as="geometry" />
        </mxCell>
        <mxCell id="fyeRi_BMllB8emfNk8ld-62" value="" style="edgeStyle=orthogonalEdgeStyle;rounded=0;orthogonalLoop=1;jettySize=auto;html=1;entryX=0.5;entryY=0;entryDx=0;entryDy=0;" edge="1" parent="1" source="fyeRi_BMllB8emfNk8ld-55" target="fyeRi_BMllB8emfNk8ld-97">
          <mxGeometry relative="1" as="geometry">
            <mxPoint x="535" y="890" as="targetPoint" />
          </mxGeometry>
        </mxCell>
        <mxCell id="fyeRi_BMllB8emfNk8ld-65" value="True" style="edgeLabel;html=1;align=center;verticalAlign=middle;resizable=0;points=[];" vertex="1" connectable="0" parent="fyeRi_BMllB8emfNk8ld-62">
          <mxGeometry x="0.2286" y="2" relative="1" as="geometry">
            <mxPoint as="offset" />
          </mxGeometry>
        </mxCell>
        <mxCell id="fyeRi_BMllB8emfNk8ld-67" value="" style="edgeStyle=orthogonalEdgeStyle;rounded=0;orthogonalLoop=1;jettySize=auto;html=1;" edge="1" parent="1" source="fyeRi_BMllB8emfNk8ld-55" target="fyeRi_BMllB8emfNk8ld-66">
          <mxGeometry relative="1" as="geometry" />
        </mxCell>
        <mxCell id="fyeRi_BMllB8emfNk8ld-68" value="False" style="edgeLabel;html=1;align=center;verticalAlign=middle;resizable=0;points=[];" vertex="1" connectable="0" parent="fyeRi_BMllB8emfNk8ld-67">
          <mxGeometry x="-0.1333" y="1" relative="1" as="geometry">
            <mxPoint as="offset" />
          </mxGeometry>
        </mxCell>
        <mxCell id="fyeRi_BMllB8emfNk8ld-55" value="&lt;div&gt;task == &quot;land&quot;&lt;/div&gt;" style="rhombus;whiteSpace=wrap;html=1;" vertex="1" parent="1">
          <mxGeometry x="470" y="680" width="130" height="140" as="geometry" />
        </mxCell>
        <mxCell id="fyeRi_BMllB8emfNk8ld-106" value="" style="edgeStyle=orthogonalEdgeStyle;rounded=0;orthogonalLoop=1;jettySize=auto;html=1;" edge="1" parent="1" source="fyeRi_BMllB8emfNk8ld-66" target="fyeRi_BMllB8emfNk8ld-105">
          <mxGeometry relative="1" as="geometry" />
        </mxCell>
        <mxCell id="fyeRi_BMllB8emfNk8ld-113" value="True" style="edgeLabel;html=1;align=center;verticalAlign=middle;resizable=0;points=[];" vertex="1" connectable="0" parent="fyeRi_BMllB8emfNk8ld-106">
          <mxGeometry x="-0.1143" y="1" relative="1" as="geometry">
            <mxPoint as="offset" />
          </mxGeometry>
        </mxCell>
        <mxCell id="fyeRi_BMllB8emfNk8ld-115" value="" style="edgeStyle=orthogonalEdgeStyle;rounded=0;orthogonalLoop=1;jettySize=auto;html=1;" edge="1" parent="1" source="fyeRi_BMllB8emfNk8ld-66" target="fyeRi_BMllB8emfNk8ld-114">
          <mxGeometry relative="1" as="geometry" />
        </mxCell>
        <mxCell id="fyeRi_BMllB8emfNk8ld-116" value="False" style="edgeLabel;html=1;align=center;verticalAlign=middle;resizable=0;points=[];" vertex="1" connectable="0" parent="fyeRi_BMllB8emfNk8ld-115">
          <mxGeometry x="-0.04" y="-3" relative="1" as="geometry">
            <mxPoint as="offset" />
          </mxGeometry>
        </mxCell>
        <mxCell id="fyeRi_BMllB8emfNk8ld-66" value="!is_at_altitude" style="rhombus;whiteSpace=wrap;html=1;" vertex="1" parent="1">
          <mxGeometry x="700" y="680" width="130" height="140" as="geometry" />
        </mxCell>
        <mxCell id="fyeRi_BMllB8emfNk8ld-71" value="" style="edgeStyle=orthogonalEdgeStyle;rounded=0;orthogonalLoop=1;jettySize=auto;html=1;" edge="1" parent="1" source="fyeRi_BMllB8emfNk8ld-69" target="fyeRi_BMllB8emfNk8ld-31">
          <mxGeometry relative="1" as="geometry" />
        </mxCell>
        <mxCell id="fyeRi_BMllB8emfNk8ld-69" value="is_at_altitude = true" style="rounded=1;whiteSpace=wrap;html=1;" vertex="1" parent="1">
          <mxGeometry x="15" y="1190" width="120" height="60" as="geometry" />
        </mxCell>
        <mxCell id="fyeRi_BMllB8emfNk8ld-87" value="" style="edgeStyle=orthogonalEdgeStyle;rounded=0;orthogonalLoop=1;jettySize=auto;html=1;" edge="1" parent="1" source="fyeRi_BMllB8emfNk8ld-75" target="fyeRi_BMllB8emfNk8ld-77">
          <mxGeometry relative="1" as="geometry" />
        </mxCell>
        <mxCell id="fyeRi_BMllB8emfNk8ld-75" value="Calculate path points from current position to given position" style="rounded=1;whiteSpace=wrap;html=1;" vertex="1" parent="1">
          <mxGeometry x="245" y="880" width="120" height="60" as="geometry" />
        </mxCell>
        <mxCell id="fyeRi_BMllB8emfNk8ld-79" value="" style="edgeStyle=orthogonalEdgeStyle;rounded=0;orthogonalLoop=1;jettySize=auto;html=1;" edge="1" parent="1" source="fyeRi_BMllB8emfNk8ld-77" target="fyeRi_BMllB8emfNk8ld-78">
          <mxGeometry relative="1" as="geometry" />
        </mxCell>
        <mxCell id="fyeRi_BMllB8emfNk8ld-77" value="Move through all points" style="rounded=1;whiteSpace=wrap;html=1;" vertex="1" parent="1">
          <mxGeometry x="245" y="980" width="120" height="60" as="geometry" />
        </mxCell>
        <mxCell id="fyeRi_BMllB8emfNk8ld-80" value="" style="edgeStyle=orthogonalEdgeStyle;rounded=0;orthogonalLoop=1;jettySize=auto;html=1;" edge="1" parent="1" source="fyeRi_BMllB8emfNk8ld-78" target="fyeRi_BMllB8emfNk8ld-37">
          <mxGeometry relative="1" as="geometry" />
        </mxCell>
        <mxCell id="fyeRi_BMllB8emfNk8ld-78" value="is_at_position = true" style="rounded=1;whiteSpace=wrap;html=1;" vertex="1" parent="1">
          <mxGeometry x="245" y="1080" width="120" height="60" as="geometry" />
        </mxCell>
        <mxCell id="fyeRi_BMllB8emfNk8ld-85" value="" style="edgeStyle=orthogonalEdgeStyle;rounded=0;orthogonalLoop=1;jettySize=auto;html=1;" edge="1" parent="1" source="fyeRi_BMllB8emfNk8ld-83" target="fyeRi_BMllB8emfNk8ld-53">
          <mxGeometry relative="1" as="geometry" />
        </mxCell>
        <mxCell id="fyeRi_BMllB8emfNk8ld-83" value="is_at_altitude = true" style="rounded=1;whiteSpace=wrap;html=1;" vertex="1" parent="1">
          <mxGeometry x="245" y="1690" width="120" height="60" as="geometry" />
        </mxCell>
        <mxCell id="fyeRi_BMllB8emfNk8ld-91" value="" style="edgeStyle=orthogonalEdgeStyle;rounded=0;orthogonalLoop=1;jettySize=auto;html=1;" edge="1" parent="1" source="fyeRi_BMllB8emfNk8ld-92" target="fyeRi_BMllB8emfNk8ld-94">
          <mxGeometry relative="1" as="geometry" />
        </mxCell>
        <mxCell id="fyeRi_BMllB8emfNk8ld-92" value="Land drone" style="rounded=1;whiteSpace=wrap;html=1;" vertex="1" parent="1">
          <mxGeometry x="475" y="1220" width="120" height="60" as="geometry" />
        </mxCell>
        <mxCell id="fyeRi_BMllB8emfNk8ld-93" value="" style="edgeStyle=orthogonalEdgeStyle;rounded=0;orthogonalLoop=1;jettySize=auto;html=1;" edge="1" parent="1" source="fyeRi_BMllB8emfNk8ld-94" target="fyeRi_BMllB8emfNk8ld-95">
          <mxGeometry relative="1" as="geometry" />
        </mxCell>
        <mxCell id="fyeRi_BMllB8emfNk8ld-94" value="Wait until drone landed" style="rounded=1;whiteSpace=wrap;html=1;" vertex="1" parent="1">
          <mxGeometry x="475" y="1340" width="120" height="60" as="geometry" />
        </mxCell>
        <mxCell id="fyeRi_BMllB8emfNk8ld-103" value="" style="edgeStyle=orthogonalEdgeStyle;rounded=0;orthogonalLoop=1;jettySize=auto;html=1;" edge="1" parent="1" source="fyeRi_BMllB8emfNk8ld-95" target="fyeRi_BMllB8emfNk8ld-102">
          <mxGeometry relative="1" as="geometry" />
        </mxCell>
        <mxCell id="fyeRi_BMllB8emfNk8ld-95" value="Disarm drone" style="rounded=1;whiteSpace=wrap;html=1;" vertex="1" parent="1">
          <mxGeometry x="475" y="1440" width="120" height="60" as="geometry" />
        </mxCell>
        <mxCell id="fyeRi_BMllB8emfNk8ld-96" value="" style="edgeStyle=orthogonalEdgeStyle;rounded=0;orthogonalLoop=1;jettySize=auto;html=1;" edge="1" parent="1" source="fyeRi_BMllB8emfNk8ld-97" target="fyeRi_BMllB8emfNk8ld-99">
          <mxGeometry relative="1" as="geometry" />
        </mxCell>
        <mxCell id="fyeRi_BMllB8emfNk8ld-97" value="Calculate path points from current position to given position" style="rounded=1;whiteSpace=wrap;html=1;" vertex="1" parent="1">
          <mxGeometry x="475" y="920" width="120" height="60" as="geometry" />
        </mxCell>
        <mxCell id="fyeRi_BMllB8emfNk8ld-98" value="" style="edgeStyle=orthogonalEdgeStyle;rounded=0;orthogonalLoop=1;jettySize=auto;html=1;" edge="1" parent="1" source="fyeRi_BMllB8emfNk8ld-99" target="fyeRi_BMllB8emfNk8ld-101">
          <mxGeometry relative="1" as="geometry" />
        </mxCell>
        <mxCell id="fyeRi_BMllB8emfNk8ld-99" value="Move through all points" style="rounded=1;whiteSpace=wrap;html=1;" vertex="1" parent="1">
          <mxGeometry x="475" y="1020" width="120" height="60" as="geometry" />
        </mxCell>
        <mxCell id="fyeRi_BMllB8emfNk8ld-100" value="" style="edgeStyle=orthogonalEdgeStyle;rounded=0;orthogonalLoop=1;jettySize=auto;html=1;" edge="1" parent="1" source="fyeRi_BMllB8emfNk8ld-101" target="fyeRi_BMllB8emfNk8ld-92">
          <mxGeometry relative="1" as="geometry" />
        </mxCell>
        <mxCell id="fyeRi_BMllB8emfNk8ld-101" value="is_at_position = true" style="rounded=1;whiteSpace=wrap;html=1;" vertex="1" parent="1">
          <mxGeometry x="475" y="1120" width="120" height="60" as="geometry" />
        </mxCell>
        <mxCell id="fyeRi_BMllB8emfNk8ld-104" style="edgeStyle=orthogonalEdgeStyle;rounded=0;orthogonalLoop=1;jettySize=auto;html=1;entryX=0;entryY=0.5;entryDx=0;entryDy=0;" edge="1" parent="1" source="fyeRi_BMllB8emfNk8ld-102" target="fyeRi_BMllB8emfNk8ld-66">
          <mxGeometry relative="1" as="geometry">
            <Array as="points">
              <mxPoint x="670" y="1570" />
              <mxPoint x="670" y="750" />
            </Array>
          </mxGeometry>
        </mxCell>
        <mxCell id="fyeRi_BMllB8emfNk8ld-102" value="is_at_altitude = true" style="rounded=1;whiteSpace=wrap;html=1;" vertex="1" parent="1">
          <mxGeometry x="475" y="1540" width="120" height="60" as="geometry" />
        </mxCell>
        <mxCell id="fyeRi_BMllB8emfNk8ld-112" value="" style="edgeStyle=orthogonalEdgeStyle;rounded=0;orthogonalLoop=1;jettySize=auto;html=1;" edge="1" parent="1" source="fyeRi_BMllB8emfNk8ld-105" target="fyeRi_BMllB8emfNk8ld-108">
          <mxGeometry relative="1" as="geometry" />
        </mxCell>
        <mxCell id="fyeRi_BMllB8emfNk8ld-105" value="Move up or down to the given altitude" style="rounded=1;whiteSpace=wrap;html=1;" vertex="1" parent="1">
          <mxGeometry x="705" y="890" width="120" height="60" as="geometry" />
        </mxCell>
        <mxCell id="fyeRi_BMllB8emfNk8ld-107" value="" style="edgeStyle=orthogonalEdgeStyle;rounded=0;orthogonalLoop=1;jettySize=auto;html=1;" edge="1" parent="1" source="fyeRi_BMllB8emfNk8ld-108" target="fyeRi_BMllB8emfNk8ld-111">
          <mxGeometry relative="1" as="geometry" />
        </mxCell>
        <mxCell id="fyeRi_BMllB8emfNk8ld-108" value="Wait until drone at altitude with given precision" style="rounded=1;whiteSpace=wrap;html=1;" vertex="1" parent="1">
          <mxGeometry x="705" y="1020" width="120" height="60" as="geometry" />
        </mxCell>
        <mxCell id="fyeRi_BMllB8emfNk8ld-117" style="edgeStyle=orthogonalEdgeStyle;rounded=0;orthogonalLoop=1;jettySize=auto;html=1;entryX=0;entryY=0.5;entryDx=0;entryDy=0;" edge="1" parent="1" source="fyeRi_BMllB8emfNk8ld-109" target="fyeRi_BMllB8emfNk8ld-114">
          <mxGeometry relative="1" as="geometry">
            <Array as="points">
              <mxPoint x="910" y="1230" />
              <mxPoint x="910" y="750" />
            </Array>
          </mxGeometry>
        </mxCell>
        <mxCell id="fyeRi_BMllB8emfNk8ld-109" value="Select map for current altitude" style="rounded=1;whiteSpace=wrap;html=1;" vertex="1" parent="1">
          <mxGeometry x="705" y="1200" width="120" height="60" as="geometry" />
        </mxCell>
        <mxCell id="fyeRi_BMllB8emfNk8ld-110" value="" style="edgeStyle=orthogonalEdgeStyle;rounded=0;orthogonalLoop=1;jettySize=auto;html=1;" edge="1" parent="1" source="fyeRi_BMllB8emfNk8ld-111" target="fyeRi_BMllB8emfNk8ld-109">
          <mxGeometry relative="1" as="geometry" />
        </mxCell>
        <mxCell id="fyeRi_BMllB8emfNk8ld-111" value="is_at_altitude = true" style="rounded=1;whiteSpace=wrap;html=1;" vertex="1" parent="1">
          <mxGeometry x="705" y="1110" width="120" height="60" as="geometry" />
        </mxCell>
        <mxCell id="fyeRi_BMllB8emfNk8ld-126" value="" style="edgeStyle=orthogonalEdgeStyle;rounded=0;orthogonalLoop=1;jettySize=auto;html=1;" edge="1" parent="1" source="fyeRi_BMllB8emfNk8ld-114" target="fyeRi_BMllB8emfNk8ld-122">
          <mxGeometry relative="1" as="geometry" />
        </mxCell>
        <mxCell id="fyeRi_BMllB8emfNk8ld-127" value="True" style="edgeLabel;html=1;align=center;verticalAlign=middle;resizable=0;points=[];" vertex="1" connectable="0" parent="fyeRi_BMllB8emfNk8ld-126">
          <mxGeometry y="3" relative="1" as="geometry">
            <mxPoint as="offset" />
          </mxGeometry>
        </mxCell>
        <mxCell id="fyeRi_BMllB8emfNk8ld-129" value="" style="edgeStyle=orthogonalEdgeStyle;rounded=0;orthogonalLoop=1;jettySize=auto;html=1;" edge="1" parent="1" source="fyeRi_BMllB8emfNk8ld-114" target="fyeRi_BMllB8emfNk8ld-128">
          <mxGeometry relative="1" as="geometry" />
        </mxCell>
        <mxCell id="fyeRi_BMllB8emfNk8ld-131" value="False" style="edgeLabel;html=1;align=center;verticalAlign=middle;resizable=0;points=[];" vertex="1" connectable="0" parent="fyeRi_BMllB8emfNk8ld-129">
          <mxGeometry x="-0.1333" y="-3" relative="1" as="geometry">
            <mxPoint as="offset" />
          </mxGeometry>
        </mxCell>
        <mxCell id="fyeRi_BMllB8emfNk8ld-114" value="!is_at_position" style="rhombus;whiteSpace=wrap;html=1;" vertex="1" parent="1">
          <mxGeometry x="930" y="680" width="130" height="140" as="geometry" />
        </mxCell>
        <mxCell id="fyeRi_BMllB8emfNk8ld-121" value="" style="edgeStyle=orthogonalEdgeStyle;rounded=0;orthogonalLoop=1;jettySize=auto;html=1;" edge="1" parent="1" source="fyeRi_BMllB8emfNk8ld-122" target="fyeRi_BMllB8emfNk8ld-124">
          <mxGeometry relative="1" as="geometry" />
        </mxCell>
        <mxCell id="fyeRi_BMllB8emfNk8ld-122" value="Calculate path points from current position to given position" style="rounded=1;whiteSpace=wrap;html=1;" vertex="1" parent="1">
          <mxGeometry x="935" y="890" width="120" height="60" as="geometry" />
        </mxCell>
        <mxCell id="fyeRi_BMllB8emfNk8ld-123" value="" style="edgeStyle=orthogonalEdgeStyle;rounded=0;orthogonalLoop=1;jettySize=auto;html=1;" edge="1" parent="1" source="fyeRi_BMllB8emfNk8ld-124" target="fyeRi_BMllB8emfNk8ld-125">
          <mxGeometry relative="1" as="geometry" />
        </mxCell>
        <mxCell id="fyeRi_BMllB8emfNk8ld-124" value="Move through all points" style="rounded=1;whiteSpace=wrap;html=1;" vertex="1" parent="1">
          <mxGeometry x="935" y="990" width="120" height="60" as="geometry" />
        </mxCell>
        <mxCell id="fyeRi_BMllB8emfNk8ld-132" style="edgeStyle=orthogonalEdgeStyle;rounded=0;orthogonalLoop=1;jettySize=auto;html=1;entryX=0;entryY=0.5;entryDx=0;entryDy=0;" edge="1" parent="1" source="fyeRi_BMllB8emfNk8ld-125" target="fyeRi_BMllB8emfNk8ld-128">
          <mxGeometry relative="1" as="geometry">
            <Array as="points">
              <mxPoint x="1150" y="1120" />
              <mxPoint x="1150" y="750" />
            </Array>
          </mxGeometry>
        </mxCell>
        <mxCell id="fyeRi_BMllB8emfNk8ld-125" value="is_at_position = true" style="rounded=1;whiteSpace=wrap;html=1;" vertex="1" parent="1">
          <mxGeometry x="935" y="1090" width="120" height="60" as="geometry" />
        </mxCell>
        <mxCell id="fyeRi_BMllB8emfNk8ld-134" value="" style="edgeStyle=orthogonalEdgeStyle;rounded=0;orthogonalLoop=1;jettySize=auto;html=1;" edge="1" parent="1" source="fyeRi_BMllB8emfNk8ld-128" target="fyeRi_BMllB8emfNk8ld-133">
          <mxGeometry relative="1" as="geometry" />
        </mxCell>
        <mxCell id="fyeRi_BMllB8emfNk8ld-137" value="True" style="edgeLabel;html=1;align=center;verticalAlign=middle;resizable=0;points=[];" vertex="1" connectable="0" parent="fyeRi_BMllB8emfNk8ld-134">
          <mxGeometry x="-0.2" y="3" relative="1" as="geometry">
            <mxPoint as="offset" />
          </mxGeometry>
        </mxCell>
        <mxCell id="fyeRi_BMllB8emfNk8ld-138" style="edgeStyle=orthogonalEdgeStyle;rounded=0;orthogonalLoop=1;jettySize=auto;html=1;entryX=0.5;entryY=0;entryDx=0;entryDy=0;exitX=1;exitY=0.5;exitDx=0;exitDy=0;" edge="1" parent="1" source="fyeRi_BMllB8emfNk8ld-128" target="fyeRi_BMllB8emfNk8ld-5">
          <mxGeometry relative="1" as="geometry">
            <mxPoint x="1385" y="650" as="sourcePoint" />
            <mxPoint x="650" y="520" as="targetPoint" />
            <Array as="points">
              <mxPoint x="1405" y="750" />
              <mxPoint x="1405" y="550" />
              <mxPoint x="450" y="550" />
            </Array>
          </mxGeometry>
        </mxCell>
        <mxCell id="fyeRi_BMllB8emfNk8ld-139" value="False" style="edgeLabel;html=1;align=center;verticalAlign=middle;resizable=0;points=[];" vertex="1" connectable="0" parent="fyeRi_BMllB8emfNk8ld-138">
          <mxGeometry x="-0.905" y="1" relative="1" as="geometry">
            <mxPoint as="offset" />
          </mxGeometry>
        </mxCell>
        <mxCell id="fyeRi_BMllB8emfNk8ld-128" value="&lt;div&gt;is_at_altitude&lt;/div&gt;&lt;div&gt;&amp;amp;&amp;amp;&lt;/div&gt;&lt;div&gt;is_at_position&lt;br&gt;&lt;/div&gt;" style="rhombus;whiteSpace=wrap;html=1;" vertex="1" parent="1">
          <mxGeometry x="1180" y="680" width="130" height="140" as="geometry" />
        </mxCell>
        <mxCell id="fyeRi_BMllB8emfNk8ld-136" value="" style="edgeStyle=orthogonalEdgeStyle;rounded=0;orthogonalLoop=1;jettySize=auto;html=1;" edge="1" parent="1" source="fyeRi_BMllB8emfNk8ld-133" target="fyeRi_BMllB8emfNk8ld-135">
          <mxGeometry relative="1" as="geometry" />
        </mxCell>
        <mxCell id="fyeRi_BMllB8emfNk8ld-133" value="is_at_altitude = false&lt;div&gt;is_at_position = false&lt;/div&gt;" style="rounded=1;whiteSpace=wrap;html=1;" vertex="1" parent="1">
          <mxGeometry x="1185" y="880" width="120" height="60" as="geometry" />
        </mxCell>
        <mxCell id="fyeRi_BMllB8emfNk8ld-142" style="edgeStyle=orthogonalEdgeStyle;rounded=0;orthogonalLoop=1;jettySize=auto;html=1;entryX=0.5;entryY=0;entryDx=0;entryDy=0;" edge="1" parent="1" source="fyeRi_BMllB8emfNk8ld-135" target="fyeRi_BMllB8emfNk8ld-5">
          <mxGeometry relative="1" as="geometry">
            <Array as="points">
              <mxPoint x="1460" y="1010" />
              <mxPoint x="1460" y="550" />
              <mxPoint x="450" y="550" />
            </Array>
          </mxGeometry>
        </mxCell>
        <mxCell id="fyeRi_BMllB8emfNk8ld-135" value="Move to next mission point" style="rounded=1;whiteSpace=wrap;html=1;" vertex="1" parent="1">
          <mxGeometry x="1185" y="980" width="120" height="60" as="geometry" />
        </mxCell>
        <mxCell id="fyeRi_BMllB8emfNk8ld-147" value="" style="edgeStyle=orthogonalEdgeStyle;rounded=0;orthogonalLoop=1;jettySize=auto;html=1;" edge="1" parent="1" source="fyeRi_BMllB8emfNk8ld-143" target="fyeRi_BMllB8emfNk8ld-146">
          <mxGeometry relative="1" as="geometry" />
        </mxCell>
        <mxCell id="fyeRi_BMllB8emfNk8ld-143" value="Mission complete" style="rounded=1;whiteSpace=wrap;html=1;" vertex="1" parent="1">
          <mxGeometry x="1530" y="590" width="120" height="60" as="geometry" />
        </mxCell>
        <mxCell id="fyeRi_BMllB8emfNk8ld-146" value="End" style="ellipse;whiteSpace=wrap;html=1;" vertex="1" parent="1">
          <mxGeometry x="1530" y="700" width="120" height="80" as="geometry" />
        </mxCell>
      </root>
    </mxGraphModel>
  </diagram>
</mxfile>
